<svg width="25" height="24" viewBox="0 0 25 24" fill="none" xmlns="http://www.w3.org/2000/svg">
<path fill-rule="evenodd" clip-rule="evenodd" d="M14.5 2C14.5 1.44772 14.0523 1 13.5 1H6.5C4.84315 1 3.5 2.34315 3.5 4V20C3.5 21.6569 4.84315 23 6.5 23H18.5C20.1569 23 21.5 21.6569 21.5 20V9C21.5 8.44772 21.0523 8 20.5 8H17.5C15.8431 8 14.5 6.65685 14.5 5V2ZM8.5 13C8.5 12.4477 8.94771 12 9.5 12H15.5C16.0523 12 16.5 12.4477 16.5 13C16.5 13.5523 16.0523 14 15.5 14H9.5C8.94771 14 8.5 13.5523 8.5 13ZM8.5 17C8.5 16.4477 8.94771 16 9.5 16H12.5C13.0523 16 13.5 16.4477 13.5 17C13.5 17.5523 13.0523 18 12.5 18H9.5C8.94771 18 8.5 17.5523 8.5 17Z" fill="#6557FF"/>
<path d="M17.4774 1.17757C16.9681 0.963989 16.5 1.44777 16.5 2.00005V5.00005C16.5 5.55234 16.9477 6.00005 17.5 6.00005H20.5C21.0523 6.00005 21.5361 5.53194 21.3225 5.02262C21.23 4.80212 21.0972 4.59721 20.9142 4.41427L18.0858 1.58584C17.9028 1.40289 17.6979 1.27003 17.4774 1.17757Z" fill="#6557FF"/>
</svg>
