<svg width="23" height="22" viewBox="0 0 23 22" fill="none" xmlns="http://www.w3.org/2000/svg">
<path d="M11.4555 0C5.12963 0 0 5.04291 0 11.2638C0 16.2406 3.28235 20.4627 7.83402 21.9521C8.4065 22.0564 8.61673 21.7078 8.61673 21.4103C8.61673 21.1417 8.60604 20.2543 8.60119 19.3131C5.41416 19.9945 4.74168 17.9842 4.74168 17.9842C4.22059 16.6822 3.46977 16.3361 3.46977 16.3361C2.43045 15.6369 3.54811 15.6513 3.54811 15.6513C4.69847 15.7308 5.30419 16.8121 5.30419 16.8121C6.3259 18.5341 7.98405 18.0362 8.63776 17.7485C8.74054 17.0204 9.03747 16.5235 9.36504 16.2423C6.82067 15.9574 4.14584 14.9915 4.14584 10.6756C4.14584 9.44588 4.59335 8.44101 5.32621 7.65222C5.20725 7.36847 4.81518 6.22287 5.43716 4.67135C5.43716 4.67135 6.39912 4.36861 8.58825 5.82596C9.50197 5.57631 10.482 5.45122 11.4555 5.44698C12.4291 5.45122 13.4098 5.57631 14.3253 5.82596C16.5118 4.36861 17.4725 4.67135 17.4725 4.67135C18.096 6.22287 17.7037 7.36847 17.5848 7.65222C18.3192 8.44101 18.7637 9.44579 18.7637 10.6756C18.7637 15.0018 16.0838 15.9544 13.533 16.2332C13.9438 16.5828 14.31 17.2683 14.31 18.3191C14.31 19.8262 14.2967 21.0392 14.2967 21.4103C14.2967 21.71 14.5028 22.0612 15.0836 21.9506C19.6327 20.4595 22.911 16.2389 22.911 11.2638C22.911 5.04291 17.7821 0 11.4555 0Z" fill="#161614"/>
</svg>
