<svg width="30" height="30" viewBox="0 0 30 30" fill="none" xmlns="http://www.w3.org/2000/svg">
<path d="M25 20C25 19.3096 24.4404 18.75 23.75 18.75C23.0596 18.75 22.5 19.3096 22.5 20V24.4822L22.1339 24.1161C21.6457 23.628 20.8543 23.628 20.3661 24.1161C19.878 24.6043 19.878 25.3957 20.3661 25.8839L22.8661 28.3839C23.3543 28.872 24.1457 28.872 24.6339 28.3839L27.1339 25.8839C27.622 25.3957 27.622 24.6043 27.1339 24.1161C26.6457 23.628 25.8543 23.628 25.3661 24.1161L25 24.4822V20Z" fill="#E2E2E2"/>
<path d="M12.1973 4.99994C12.7059 4.99947 13.1543 4.99905 13.5899 5.10362C13.9725 5.19548 14.3383 5.347 14.6738 5.5526C15.0558 5.78665 15.3726 6.10404 15.7319 6.46401L16.7678 7.50001L22.2982 7.5C22.9571 7.49998 23.5256 7.49996 23.9938 7.53822C24.488 7.57859 24.9795 7.66774 25.4525 7.90873C26.1581 8.26826 26.7318 8.84193 27.0913 9.54754C27.3323 10.0205 27.4214 10.512 27.4618 11.0062C27.5 11.4744 27.5 12.0429 27.5 12.7018V15.25C27.5 15.6001 27.5 15.7751 27.4319 15.9088C27.372 16.0264 27.2763 16.122 27.1587 16.1819C27.0251 16.25 26.85 16.25 26.5 16.25H23.75C19.6079 16.25 16.25 19.6079 16.25 23.75V24C16.25 24.35 16.25 24.5251 16.1819 24.6587C16.122 24.7764 16.0263 24.872 15.9087 24.9319C15.7751 25 15.6 25 15.25 25H7.7017C7.04283 25 6.4744 25 6.00622 24.9618C5.51204 24.9214 5.02051 24.8323 4.54754 24.5913C3.84193 24.2318 3.26825 23.6581 2.90873 22.9525C2.66774 22.4795 2.57859 21.988 2.53822 21.4938C2.49996 21.0256 2.49998 20.4571 2.5 19.7982V10.2018C2.49998 9.54288 2.49996 8.97441 2.53822 8.50622C2.57859 8.01204 2.66774 7.52052 2.90873 7.04754C3.26825 6.34193 3.84193 5.76826 4.54754 5.40873C5.02051 5.16774 5.51204 5.07859 6.00622 5.03822C6.47443 4.99996 7.04289 4.99998 7.70182 5L12.1973 4.99994Z" fill="#E2E2E2"/>
</svg>
