<svg width="24" height="24" viewBox="0 0 24 24" fill="none" xmlns="http://www.w3.org/2000/svg">
<g clip-path="url(#clip0_3055_12122)">
<path d="M21.8672 19.7344C20.9288 19.7344 20.1306 20.3438 19.8461 21.1875H14.0445C13.8321 20.5574 13.3331 20.0585 12.7031 19.8461V18.3281H20.4375C20.8258 18.3281 21.1406 18.0133 21.1406 17.625V13.1562H2.85938V17.625C2.85938 18.0133 3.17419 18.3281 3.5625 18.3281H11.2969V19.862C10.6889 20.0829 10.2095 20.5731 10.0023 21.1875H4.15392C3.86944 20.3438 3.0712 19.7344 2.13281 19.7344C0.956766 19.7344 0 20.6911 0 21.8672C0 23.0432 0.956766 24 2.13281 24C3.05381 24 3.84023 23.4131 4.13803 22.5937H10.0182C10.6985 24.4654 13.3492 24.4632 14.0287 22.5937H19.862C20.1598 23.4131 20.9462 24 21.8672 24C23.0432 24 24 23.0432 24 21.8672C24 20.6911 23.0432 19.7344 21.8672 19.7344ZM6.375 16.4453C5.98669 16.4453 5.67188 16.1305 5.67188 15.7422C5.67188 15.3538 5.98669 15.039 6.375 15.039C6.76331 15.039 7.07812 15.3538 7.07812 15.7422C7.07812 16.1305 6.76331 16.4453 6.375 16.4453ZM8.48438 15.7422C8.48438 15.3538 8.79919 15.039 9.1875 15.039H17.625C18.0133 15.039 18.3281 15.3538 18.3281 15.7422C18.3281 16.1305 18.0133 16.4453 17.625 16.4453H9.1875C8.79919 16.4453 8.48438 16.1305 8.48438 15.7422Z" fill="#E2E2E2"/>
<path d="M21.1406 0.703125C21.1406 0.314812 20.8258 0 20.4375 0H3.5625C3.17419 0 2.85938 0.314812 2.85938 0.703125V5.17186H21.1406V0.703125ZM6.375 3.28908C5.98669 3.28908 5.67188 2.97427 5.67188 2.58595C5.67188 2.19764 5.98669 1.88283 6.375 1.88283C6.76331 1.88283 7.07812 2.19764 7.07812 2.58595C7.07812 2.97427 6.76331 3.28908 6.375 3.28908ZM17.625 3.28908H9.1875C8.79919 3.28908 8.48438 2.97427 8.48438 2.58595C8.48438 2.19764 8.79919 1.88283 9.1875 1.88283H17.625C18.0133 1.88283 18.3281 2.19764 18.3281 2.58595C18.3281 2.97427 18.0133 3.28908 17.625 3.28908Z" fill="#E2E2E2"/>
<path d="M21.1406 6.57812H2.85938V11.75H21.1406V6.57812ZM6.375 9.89064C5.98669 9.89064 5.67188 9.57583 5.67188 9.18752C5.67188 8.7992 5.98669 8.48439 6.375 8.48439C6.76331 8.48439 7.07812 8.7992 7.07812 9.18752C7.07812 9.57583 6.76331 9.89064 6.375 9.89064ZM17.625 9.89064H9.1875C8.79919 9.89064 8.48438 9.57583 8.48438 9.18752C8.48438 8.7992 8.79919 8.48439 9.1875 8.48439H17.625C18.0133 8.48439 18.3281 8.7992 18.3281 9.18752C18.3281 9.57583 18.0133 9.89064 17.625 9.89064Z" fill="#E2E2E2"/>
</g>
<defs>
<clipPath id="clip0_3055_12122">
<rect width="24" height="24" fill="white"/>
</clipPath>
</defs>
</svg>
